<mxfile host="app.diagrams.net" modified="2023-11-02T07:57:20.821Z" agent="Mozilla/5.0 (Windows NT 10.0; Win64; x64) AppleWebKit/537.36 (KHTML, like Gecko) Chrome/118.0.0.0 Safari/537.36" version="22.0.8" etag="v2TIoo5TQll3fwYkAqQI" type="github">
  <diagram name="Page-1" id="MZ3Yzhhn9yMW5tRhgYjG">
    <mxGraphModel>
      <root>
        <mxCell id="0" />
        <mxCell id="1" parent="0" />
        <mxCell id="2" value="SistemInformasiAkademikBerbasisWebsite" style="shape=umlLifeline;perimeter=lifelinePerimeter;whiteSpace=wrap;container=1;dropTarget=0;collapsible=0;recursiveResize=0;outlineConnect=0;portConstraint=eastwest;newEdgeStyle={&quot;edgeStyle&quot;:&quot;elbowEdgeStyle&quot;,&quot;elbow&quot;:&quot;vertical&quot;,&quot;curved&quot;:0,&quot;rounded&quot;:0};size=65;" vertex="1" parent="1">
          <mxGeometry width="317" height="740" as="geometry" />
        </mxCell>
        <mxCell id="3" value="Mahasiswa" style="shape=umlLifeline;perimeter=lifelinePerimeter;whiteSpace=wrap;container=1;dropTarget=0;collapsible=0;recursiveResize=0;outlineConnect=0;portConstraint=eastwest;newEdgeStyle={&quot;edgeStyle&quot;:&quot;elbowEdgeStyle&quot;,&quot;elbow&quot;:&quot;vertical&quot;,&quot;curved&quot;:0,&quot;rounded&quot;:0};size=65;" vertex="1" parent="1">
          <mxGeometry x="367" width="150" height="740" as="geometry" />
        </mxCell>
        <mxCell id="4" value="Dosen" style="shape=umlLifeline;perimeter=lifelinePerimeter;whiteSpace=wrap;container=1;dropTarget=0;collapsible=0;recursiveResize=0;outlineConnect=0;portConstraint=eastwest;newEdgeStyle={&quot;edgeStyle&quot;:&quot;elbowEdgeStyle&quot;,&quot;elbow&quot;:&quot;vertical&quot;,&quot;curved&quot;:0,&quot;rounded&quot;:0};size=65;" vertex="1" parent="1">
          <mxGeometry x="567" width="150" height="740" as="geometry" />
        </mxCell>
        <mxCell id="5" value="StafAdministrasi" style="shape=umlLifeline;perimeter=lifelinePerimeter;whiteSpace=wrap;container=1;dropTarget=0;collapsible=0;recursiveResize=0;outlineConnect=0;portConstraint=eastwest;newEdgeStyle={&quot;edgeStyle&quot;:&quot;elbowEdgeStyle&quot;,&quot;elbow&quot;:&quot;vertical&quot;,&quot;curved&quot;:0,&quot;rounded&quot;:0};size=65;" vertex="1" parent="1">
          <mxGeometry x="767" width="150" height="740" as="geometry" />
        </mxCell>
        <mxCell id="6" value="PimpinanKampus" style="shape=umlLifeline;perimeter=lifelinePerimeter;whiteSpace=wrap;container=1;dropTarget=0;collapsible=0;recursiveResize=0;outlineConnect=0;portConstraint=eastwest;newEdgeStyle={&quot;edgeStyle&quot;:&quot;elbowEdgeStyle&quot;,&quot;elbow&quot;:&quot;vertical&quot;,&quot;curved&quot;:0,&quot;rounded&quot;:0};size=65;" vertex="1" parent="1">
          <mxGeometry x="967" width="150" height="740" as="geometry" />
        </mxCell>
        <mxCell id="7" value="Memberikan Akses Sistem" style="verticalAlign=bottom;endArrow=block;edgeStyle=elbowEdgeStyle;elbow=vertical;curved=0;rounded=0;" edge="1" parent="1" source="2" target="3">
          <mxGeometry relative="1" as="geometry">
            <Array as="points">
              <mxPoint x="310" y="107" />
            </Array>
          </mxGeometry>
        </mxCell>
        <mxCell id="8" value="Memberikan Akses Sistem" style="verticalAlign=bottom;endArrow=block;edgeStyle=elbowEdgeStyle;elbow=vertical;curved=0;rounded=0;" edge="1" parent="1" source="2" target="4">
          <mxGeometry relative="1" as="geometry">
            <Array as="points">
              <mxPoint x="410" y="159" />
            </Array>
          </mxGeometry>
        </mxCell>
        <mxCell id="9" value="Memberikan Akses Sistem" style="verticalAlign=bottom;endArrow=block;edgeStyle=elbowEdgeStyle;elbow=vertical;curved=0;rounded=0;" edge="1" parent="1" source="2" target="5">
          <mxGeometry relative="1" as="geometry">
            <Array as="points">
              <mxPoint x="510" y="211" />
            </Array>
          </mxGeometry>
        </mxCell>
        <mxCell id="10" value="Memberikan Akses Sistem" style="verticalAlign=bottom;endArrow=block;edgeStyle=elbowEdgeStyle;elbow=vertical;curved=0;rounded=0;" edge="1" parent="1" source="2" target="6">
          <mxGeometry relative="1" as="geometry">
            <Array as="points">
              <mxPoint x="610" y="263" />
            </Array>
          </mxGeometry>
        </mxCell>
        <mxCell id="11" value="Menghasilkan ER Diagram" style="curved=1;" edge="1" parent="1" source="2" target="2">
          <mxGeometry relative="1" as="geometry">
            <Array as="points">
              <mxPoint x="209" y="315" />
              <mxPoint x="209" y="345" />
            </Array>
          </mxGeometry>
        </mxCell>
        <mxCell id="12" value="Menghasilkan Diagram Konteks" style="curved=1;" edge="1" parent="1" source="2" target="2">
          <mxGeometry relative="1" as="geometry">
            <Array as="points">
              <mxPoint x="209" y="397" />
              <mxPoint x="209" y="427" />
            </Array>
          </mxGeometry>
        </mxCell>
        <mxCell id="13" value="Menggunakan Sistem" style="verticalAlign=bottom;endArrow=block;edgeStyle=elbowEdgeStyle;elbow=vertical;curved=0;rounded=0;" edge="1" parent="1" source="3" target="2">
          <mxGeometry relative="1" as="geometry">
            <Array as="points">
              <mxPoint x="310" y="479" />
            </Array>
          </mxGeometry>
        </mxCell>
        <mxCell id="14" value="Menggunakan Sistem" style="verticalAlign=bottom;endArrow=block;edgeStyle=elbowEdgeStyle;elbow=vertical;curved=0;rounded=0;" edge="1" parent="1" source="4" target="2">
          <mxGeometry relative="1" as="geometry">
            <Array as="points">
              <mxPoint x="410" y="531" />
            </Array>
          </mxGeometry>
        </mxCell>
        <mxCell id="15" value="Menggunakan Sistem" style="verticalAlign=bottom;endArrow=block;edgeStyle=elbowEdgeStyle;elbow=vertical;curved=0;rounded=0;" edge="1" parent="1" source="5" target="2">
          <mxGeometry relative="1" as="geometry">
            <Array as="points">
              <mxPoint x="510" y="583" />
            </Array>
          </mxGeometry>
        </mxCell>
        <mxCell id="16" value="Menggunakan Sistem" style="verticalAlign=bottom;endArrow=block;edgeStyle=elbowEdgeStyle;elbow=vertical;curved=0;rounded=0;" edge="1" parent="1" source="6" target="2">
          <mxGeometry relative="1" as="geometry">
            <Array as="points">
              <mxPoint x="610" y="635" />
            </Array>
          </mxGeometry>
        </mxCell>
      </root>
    </mxGraphModel>
  </diagram>
</mxfile>
